<svg width="116" height="35" viewBox="0 0 116 35" fill="none" xmlns="http://www.w3.org/2000/svg">
<path d="M43.6877 10.9124C45.1469 10.9124 46.3914 9.71076 46.3914 8.20873C46.3914 6.70669 45.1898 5.54797 43.6877 5.54797C42.2286 5.54797 41.027 6.70669 41.027 8.20873C41.027 9.71076 42.2286 10.9124 43.6877 10.9124ZM40.3832 32.7134C44.2885 32.7134 46.0052 30.2243 46.0052 26.7052V12.2428H41.3703V26.6623C41.3703 28.2502 40.6837 28.9368 39.6108 28.9368C38.7525 28.9368 38.3233 28.7652 37.7225 28.2931L36.5638 31.6834C37.6796 32.413 38.4091 32.7134 40.3832 32.7134Z" fill="#0F2F46"/>
<path d="M63.8582 26.7913V12.243H59.2234V21.6414C58.6655 22.3281 57.7642 23.0576 56.4339 23.0576C54.9318 23.0576 54.0306 22.4568 54.0306 20.6973V12.243H49.3958V22.6285C49.3958 25.2892 50.8978 27.1775 54.2023 27.1775C56.6914 27.1775 58.3221 26.1046 59.2234 25.0747V26.8342H63.8582V26.7913Z" fill="#0F2F46"/>
<path d="M69.5229 10.9124C70.9821 10.9124 72.2266 9.71076 72.2266 8.20873C72.2266 6.70669 71.025 5.54797 69.5229 5.54797C68.0209 5.54797 66.8622 6.70669 66.8622 8.20873C66.8622 9.71076 68.0638 10.9124 69.5229 10.9124ZM71.8404 26.7911V12.2428H67.2055V26.7911H71.8404Z" fill="#0F2F46"/>
<path d="M82.226 27.1346C85.4017 27.1346 87.3329 25.7184 88.1912 24.4309L85.1871 21.5985C84.6292 22.4139 83.6851 23.0147 82.4405 23.0147C80.5093 23.0147 79.0502 21.6414 79.0502 19.4527C79.0502 17.2641 80.5093 15.9337 82.4405 15.9337C83.6851 15.9337 84.6292 16.4916 85.1871 17.307L88.1912 14.5175C87.3329 13.23 85.4017 11.8138 82.226 11.8138C77.6769 11.8138 74.2866 14.9037 74.2866 19.4527C74.2866 24.0018 77.6769 27.1346 82.226 27.1346Z" fill="#0F2F46"/>
<path d="M97.2892 27.1343C99.5208 27.1343 101.924 26.4906 103.383 25.2031L101.366 22.1561C100.508 22.9286 98.8342 23.4007 97.8042 23.4007C95.7013 23.4007 94.4997 22.3278 94.1564 21.0403H104.542V19.9674C104.542 15.0322 101.409 11.8564 97.1176 11.8564C92.5685 11.8564 89.3928 15.2468 89.3928 19.4954C89.3499 24.2161 92.7831 27.1343 97.2892 27.1343ZM100.079 17.8646H94.0706C94.2422 16.7917 95.0147 15.5901 97.0746 15.5901C99.2204 15.5901 99.9929 16.8346 100.079 17.8646Z" fill="#0F2F46"/>
<path d="M111.451 26.7913V17.5216C112.052 16.7062 113.64 16.1912 114.841 16.1912C115.313 16.1912 115.7 16.2341 116 16.3199V11.8138C114.283 11.8138 112.395 12.8009 111.451 14.0025V12.243H106.816V26.7913H111.451Z" fill="#0F2F46"/>
<path d="M21.4575 7.17877C22.7879 7.17877 23.8607 6.10589 23.8607 4.77551V3.23056C23.8178 1.90018 22.7879 0.827301 21.4575 0.827301C20.1271 0.827301 19.0542 1.90018 19.0542 3.23056V4.81843C19.0542 6.10589 20.1271 7.17877 21.4575 7.17877Z" fill="#F05B4A"/>
<path d="M23.818 22.6282V12.5002C23.818 11.2986 22.7451 10.3544 21.4148 10.3544C20.0844 10.3544 19.0115 11.3415 19.0115 12.5002V18.2938V19.4954C19.0115 20.8258 17.9386 21.8987 16.6082 21.8987C15.2779 21.8987 14.2479 20.8258 14.205 19.5383V19.1092V18.7229H14.1621C14.0762 17.5642 13.0892 16.7059 11.9305 16.7059C10.7288 16.7059 9.7847 17.5642 9.57012 18.68H9.52721V19.0662V20.6541C9.52721 21.9845 8.45432 23.0145 7.12395 23.0145C5.79357 23.0145 4.72069 21.9416 4.72069 20.6112V18.2509C1.88828 18.2079 0 18.8517 0 22.6282C0 29.0226 5.3215 34.1724 11.9305 34.1724C18.4965 34.2154 23.818 29.0226 23.818 22.6282Z" fill="#F05B4A"/>
<path d="M11.9304 13.5302C13.2608 13.5302 14.3336 12.4573 14.3336 11.1269V9.53903C14.3336 8.20866 13.2608 7.13577 11.9304 7.13577C10.6 7.13577 9.52713 8.20866 9.52713 9.53903V11.1269C9.52713 12.4573 10.6 13.5302 11.9304 13.5302Z" fill="#F05B4A"/>
<path d="M7.51003 23.5297C7.42419 23.358 7.33836 23.2293 7.25253 23.0576C7.20962 23.0576 7.20962 23.0576 7.1667 23.0576C5.83633 23.0576 4.76344 21.9847 4.76344 20.6543V18.294C3.43307 18.2511 2.31727 18.3798 1.50188 18.8519C1.33022 19.4098 1.24438 20.0535 1.24438 20.8689C1.24438 27.2633 6.56589 32.4131 13.1749 32.4131C16.3077 32.4131 19.2259 31.4261 21.3717 29.6237C22.23 28.5508 22.9166 27.3062 23.3458 25.9329C18.3676 29.7095 11.0291 29.1087 7.51003 23.5297Z" fill="#CB5747"/>
<path d="M6.26564 25.2462C5.23567 23.6154 4.93527 22.3279 4.84943 21.255C4.80652 21.0834 4.7636 20.8688 4.7636 20.6971V18.3368C1.88828 18.2081 0 18.8947 0 22.6283C0 29.0227 5.3215 34.1726 11.9305 34.1726C17.2949 34.1726 21.8439 30.7393 23.3459 25.9757C18.4107 30.9968 10.128 31.3831 6.26564 25.2462Z" fill="url(#paint0_linear_10558_16939)"/>
<defs>
<linearGradient id="paint0_linear_10558_16939" x1="0" y1="26.2534" x2="23.3258" y2="26.2534" gradientUnits="userSpaceOnUse">
<stop stop-color="#FCB834"/>
<stop offset="1" stop-color="#F05B4A"/>
</linearGradient>
</defs>
</svg>
