<svg width="24" height="34" viewBox="0 0 24 34" fill="none" xmlns="http://www.w3.org/2000/svg">
<path d="M21.4575 6.35147C22.7879 6.35147 23.8608 5.27859 23.8608 3.94821V2.40326C23.8179 1.07288 22.7879 0 21.4575 0C20.1271 0 19.0543 1.07288 19.0543 2.40326V3.99113C19.0543 5.27859 20.1271 6.35147 21.4575 6.35147Z" fill="#F05B4A"/>
<path d="M23.818 21.8009V11.6729C23.818 10.4712 22.7451 9.5271 21.4148 9.5271C20.0844 9.5271 19.0115 10.5142 19.0115 11.6729V17.4664V18.6681C19.0115 19.9984 17.9386 21.0713 16.6082 21.0713C15.2779 21.0713 14.2479 19.9984 14.205 18.711V18.2818V17.8956H14.1621C14.0762 16.7369 13.0892 15.8786 11.9305 15.8786C10.7288 15.8786 9.7847 16.7369 9.57012 17.8527H9.52721V18.2389V19.8268C9.52721 21.1572 8.45432 22.1871 7.12395 22.1871C5.79357 22.1871 4.72069 21.1142 4.72069 19.7839V17.4235C1.88828 17.3806 0 18.0243 0 21.8009C0 28.1953 5.3215 33.3451 11.9305 33.3451C18.4965 33.388 23.818 28.1953 23.818 21.8009Z" fill="#F05B4A"/>
<path d="M11.9304 12.7029C13.2607 12.7029 14.3336 11.63 14.3336 10.2996V8.71173C14.3336 7.38135 13.2607 6.30847 11.9304 6.30847C10.6 6.30847 9.5271 7.38135 9.5271 8.71173V10.2996C9.5271 11.63 10.6 12.7029 11.9304 12.7029Z" fill="#F05B4A"/>
<path d="M7.51003 22.7024C7.42419 22.5307 7.33836 22.402 7.25253 22.2303C7.20962 22.2303 7.20962 22.2303 7.1667 22.2303C5.83633 22.2303 4.76344 21.1574 4.76344 19.8271V17.4667C3.43307 17.4238 2.31727 17.5526 1.50188 18.0246C1.33022 18.5825 1.24438 19.2263 1.24438 20.0416C1.24438 26.436 6.56589 31.5859 13.1749 31.5859C16.3077 31.5859 19.2259 30.5988 21.3717 28.7964C22.23 27.7235 22.9166 26.479 23.3458 25.1057C18.3676 28.8822 11.0291 28.2814 7.51003 22.7024Z" fill="#CB5747"/>
<path d="M6.26564 24.4189C5.23567 22.7881 4.93527 21.5007 4.84943 20.4278C4.80652 20.2561 4.7636 20.0415 4.7636 19.8699V17.5095C1.88828 17.3808 0 18.0674 0 21.8011C0 28.1955 5.3215 33.3453 11.9305 33.3453C17.2949 33.3453 21.8439 29.9121 23.3459 25.1485C18.4107 30.1696 10.128 30.5558 6.26564 24.4189Z" fill="url(#paint0_linear_19158_81466)"/>
<defs>
<linearGradient id="paint0_linear_19158_81466" x1="0" y1="25.4261" x2="23.3258" y2="25.4261" gradientUnits="userSpaceOnUse">
<stop stop-color="#FCB834"/>
<stop offset="1" stop-color="#F05B4A"/>
</linearGradient>
</defs>
</svg>
