<svg width="41" height="34" viewBox="0 0 41 34" fill="none" xmlns="http://www.w3.org/2000/svg">
<g clip-path="url(#clip0_11350_20635)">
<path d="M15.4974 29.1165C17.2606 29.5699 19.1246 29.8721 21.039 29.8721C30.7115 29.8721 38.5705 23.4741 38.5705 15.6152C38.5705 7.75626 30.7115 1.35828 21.039 1.35828C11.3664 1.35828 3.55786 7.70588 3.55786 15.6152C3.55786 19.7462 5.72411 23.4741 9.1498 26.0938C8.6964 28.5119 7.38658 30.5774 5.57297 32.0888C5.47222 32.1895 5.5226 32.3406 5.67373 32.3406C9.65358 32.4414 13.0289 31.6354 15.4974 29.1165Z" fill="#FDEFED"/>
<path d="M21.039 24.0277C14.3892 24.0277 8.29345 21.5088 3.65869 17.4282C4.21285 20.8035 6.17758 23.8262 9.14988 26.0428C8.69647 28.461 7.38665 30.5265 5.57305 32.0378C5.47229 32.1385 5.52267 32.2897 5.6738 32.2897C9.65365 32.4408 13.029 31.6348 15.4975 29.1159C17.2607 29.5693 19.1247 29.8715 21.039 29.8715C29.9559 29.8715 37.3111 24.4811 38.4194 17.4282C33.7846 21.5592 27.7393 24.0277 21.039 24.0277Z" fill="#FCDEDB"/>
<path d="M21.039 3.87717C30.1574 3.87717 37.6637 9.56986 38.4697 16.8747C38.5201 16.4716 38.5201 16.0182 38.5201 15.6152C38.5705 7.70588 30.7115 1.35828 21.039 1.35828C11.3664 1.35828 3.55786 7.70588 3.55786 15.6152C3.55786 16.0686 3.55786 16.4716 3.60824 16.8747C4.41428 9.62024 11.9206 3.87717 21.039 3.87717Z" fill="#FCDEDB"/>
<path d="M6.5806 33.3476C6.27834 33.3476 5.97607 33.3476 5.62343 33.3476C5.11965 33.3476 4.71662 32.995 4.56549 32.5416C4.41436 32.0882 4.56549 31.5844 4.91814 31.2317C6.42947 30.0227 7.48741 28.3602 7.99118 26.4962C4.51511 23.6247 2.5 19.6952 2.5 15.6146C2.5 7.15113 10.8123 0.299744 21.039 0.299744C31.2657 0.299744 39.5781 7.15113 39.5781 15.6146C39.5781 24.0781 31.2657 30.9295 21.039 30.9295C19.2254 30.9295 17.4622 30.728 15.7997 30.3249C13.5327 32.34 10.5101 33.3476 6.5806 33.3476ZM21.039 2.36523C11.971 2.36523 4.56549 8.30982 4.56549 15.5642C4.56549 19.2418 6.42947 22.6675 9.75441 25.1864L10.2582 25.5894L10.1574 26.2443C9.80479 28.0579 9.04912 29.7708 7.89043 31.1814C10.8627 30.9798 13.0793 30.0227 14.7418 28.3602L15.1952 27.9068L15.7997 28.0579C17.5126 28.5113 19.2758 28.7632 21.0894 28.7632C30.1574 28.7632 37.563 22.8186 37.563 15.5642C37.5126 8.30982 30.1071 2.36523 21.039 2.36523Z" fill="#F05B4A"/>
<path d="M17.8146 15.6146C17.8146 14.9597 17.2605 14.4055 16.6056 14.4055C15.9506 14.4055 15.3965 14.9597 15.3965 15.6146C15.3965 16.2695 15.9506 16.8237 16.6056 16.8237C17.2605 16.8237 17.8146 16.2695 17.8146 15.6146Z" fill="#F05B4A"/>
<path d="M22.2477 15.6146C22.2477 14.9597 21.6936 14.4055 21.0387 14.4055C20.3837 14.4055 19.8296 14.9597 19.8296 15.6146C19.8296 16.2695 20.3837 16.8237 21.0387 16.8237C21.7439 16.8237 22.2477 16.2695 22.2477 15.6146Z" fill="#F05B4A"/>
<path d="M25.5225 16.8237C26.1903 16.8237 26.7316 16.2823 26.7316 15.6146C26.7316 14.9468 26.1903 14.4055 25.5225 14.4055C24.8548 14.4055 24.3135 14.9468 24.3135 15.6146C24.3135 16.2823 24.8548 16.8237 25.5225 16.8237Z" fill="#F05B4A"/>
</g>
<defs>
<clipPath id="clip0_11350_20635">
<rect width="40" height="33.4005" fill="white" transform="translate(0.5 0.299744)"/>
</clipPath>
</defs>
</svg>
