<svg width="40" height="35" viewBox="0 0 40 35" fill="none" xmlns="http://www.w3.org/2000/svg">
<g clip-path="url(#clip0_11350_20583)">
<path d="M28.5634 1.30298C26.0846 1.30298 23.7747 2.20439 22.0282 3.66918C20.8451 4.62692 19.155 4.62692 18.0282 3.66918C16.2254 2.20439 13.9719 1.30298 11.493 1.30298C5.80288 1.30298 1.2395 5.86636 1.2395 11.5002C1.2395 22.9368 13.9156 29.303 19.493 33.5283C19.8311 33.81 20.3381 33.81 20.7325 33.5283C26.1409 29.2466 38.8733 22.9368 38.8733 11.5002C38.8733 5.86636 34.2536 1.30298 28.5634 1.30298Z" fill="#FDEFED"/>
<path d="M28.5634 1.30298C26.0846 1.30298 23.7747 2.20439 22.0282 3.66918C20.8451 4.62692 19.155 4.62692 18.0282 3.66918C16.2254 2.20439 13.9719 1.30298 11.493 1.30298C5.80288 1.30298 1.2395 5.86636 1.2395 11.5002C1.2395 22.9368 13.9156 29.303 19.493 33.5283C19.8311 33.81 20.3381 33.81 20.7325 33.5283C26.1409 29.2466 38.8733 22.9368 38.8733 11.5002C38.8733 5.86636 34.2536 1.30298 28.5634 1.30298Z" fill="#FDEFED"/>
<path d="M20.0001 20.5706C13.0141 20.5706 6.5916 18.2607 1.46484 14.3734C3.324 24.0072 14.3663 29.641 19.4367 33.5283C19.7747 33.81 20.2817 33.81 20.6761 33.5283C25.7465 29.641 36.7324 24.0072 38.6479 14.3734C33.4085 18.2607 26.986 20.5706 20.0001 20.5706Z" fill="#FCDEDB"/>
<path d="M11.4367 4.45791C13.9156 4.45791 16.2254 5.35932 17.9719 6.8241C19.155 7.78185 20.8451 7.78185 21.9719 6.8241C23.7747 5.35932 26.0282 4.45791 28.5071 4.45791C33.6902 4.45791 37.9719 8.28889 38.7043 13.2466C38.7606 12.6833 38.817 12.1199 38.817 11.5002C38.817 5.86636 34.1972 1.30298 28.5634 1.30298C26.0846 1.30298 23.7747 2.20439 22.0282 3.66918C20.8451 4.62692 19.155 4.62692 18.0282 3.66918C16.2254 2.20439 13.9719 1.30298 11.493 1.30298C5.80288 1.30298 1.2395 5.86636 1.2395 11.5002C1.2395 12.1199 1.29584 12.6833 1.35218 13.2466C1.9719 8.28889 6.25359 4.45791 11.4367 4.45791Z" fill="#FCDEDB"/>
<path d="M20.0001 20.5706C13.0141 20.5706 6.5916 18.2607 1.46484 14.3734C3.324 24.0072 14.3663 29.641 19.4367 33.5283C19.7747 33.81 20.2817 33.81 20.6761 33.5283C25.7465 29.641 36.7324 24.0072 38.6479 14.3734C33.4085 18.2607 26.986 20.5706 20.0001 20.5706Z" fill="#FCDEDB"/>
<path d="M20 34.8803C19.5493 34.8803 19.0423 34.7113 18.7042 34.4296C17.8028 33.7536 16.6761 32.9648 15.4366 32.1197C9.29577 27.9507 0 21.6409 0 11.5C0 5.19017 5.12676 0.119751 11.4366 0.119751C14.0845 0.119751 16.6761 1.02116 18.7042 2.7113C19.4366 3.33102 20.507 3.33102 21.2394 2.7113C23.3239 1.02116 25.9155 0.119751 28.5634 0.119751C34.8732 0.119751 40 5.19017 40 11.5C40 21.6409 30.7042 27.9507 24.5634 32.1761C23.3239 33.0212 22.1972 33.8099 21.2958 34.4859C20.9577 34.7676 20.4507 34.8803 20 34.8803ZM11.4366 2.42961C6.42254 2.42961 2.30986 6.48595 2.30986 11.4437C2.30986 20.3451 10.6479 26.0352 16.7324 30.1479C17.9155 30.993 19.0423 31.7254 20 32.4578C20.9577 31.7254 22.0845 30.993 23.2676 30.1479C29.3521 26.0916 37.6901 20.4014 37.6901 11.5C37.6901 6.54229 33.5775 2.48595 28.5634 2.48595C26.4225 2.48595 24.3944 3.21834 22.7606 4.57045C21.1831 5.86623 18.8732 5.86623 17.2394 4.57045C15.6056 3.21834 13.5775 2.42961 11.4366 2.42961Z" fill="#F05B4A"/>
<path d="M20 34.8803C19.5493 34.8803 19.0423 34.7113 18.7042 34.4296C17.8028 33.7536 16.6761 32.9648 15.4366 32.1197C9.29577 27.9507 0 21.6409 0 11.5C0 5.19017 5.12676 0.119751 11.4366 0.119751C14.0845 0.119751 16.6761 1.02116 18.7042 2.7113C19.4366 3.33102 20.507 3.33102 21.2394 2.7113C23.3239 1.02116 25.9155 0.119751 28.5634 0.119751C34.8732 0.119751 40 5.19017 40 11.5C40 21.6409 30.7042 27.9507 24.5634 32.1761C23.3239 33.0212 22.1972 33.8099 21.2958 34.4859C20.9577 34.7676 20.4507 34.8803 20 34.8803ZM11.4366 2.42961C6.42254 2.42961 2.30986 6.48595 2.30986 11.4437C2.30986 20.3451 10.6479 26.0352 16.7324 30.1479C17.9155 30.993 19.0423 31.7254 20 32.4578C20.9577 31.7254 22.0845 30.993 23.2676 30.1479C29.3521 26.0916 37.6901 20.4014 37.6901 11.5C37.6901 6.54229 33.5775 2.48595 28.5634 2.48595C26.4225 2.48595 24.3944 3.21834 22.7606 4.57045C21.1831 5.86623 18.8732 5.86623 17.2394 4.57045C15.6056 3.21834 13.5775 2.42961 11.4366 2.42961Z" fill="#F05B4A"/>
</g>
<defs>
<clipPath id="clip0_11350_20583">
<rect width="40" height="34.7606" fill="white" transform="translate(0 0.119751)"/>
</clipPath>
</defs>
</svg>
