<svg width="393" height="18" viewBox="0 0 393 18" fill="none" xmlns="http://www.w3.org/2000/svg">
<g clip-path="url(#clip0_10559_18304)">
<path d="M3.98828 17.0526C3.05291 17.0087 2.5448 16.8482 2.20683 16.7123C1.75901 16.5324 1.43974 16.3184 1.10365 15.9723C0.767552 15.6262 0.559537 15.2969 0.386113 14.8351C0.254292 14.4866 0.0986318 13.9626 0.0560939 12.998C0.00934899 11.9553 0 11.6425 0 9.00078C0 6.35911 0.0102839 6.04673 0.0556265 5.00308C0.0981644 4.03848 0.25476 3.51545 0.385646 3.16596C0.560004 2.70415 0.768019 2.3749 1.10318 2.02782C1.43881 1.68171 1.75808 1.46671 2.20636 1.28786C2.54433 1.15192 3.05244 0.991399 3.98781 0.947532C4.99937 0.899808 5.30321 0.890167 7.8639 0.890167C10.4255 0.890167 10.7284 0.900772 11.7405 0.947532C12.6758 0.991399 13.183 1.15289 13.5219 1.28786C13.9697 1.46671 14.289 1.68171 14.6251 2.02782C14.9612 2.37394 15.1683 2.70367 15.3426 3.16548C15.4744 3.514 15.6301 4.038 15.6726 5.0026C15.7189 6.04625 15.7283 6.35862 15.7283 9.0003C15.7283 11.641 15.7189 11.9543 15.6726 12.998C15.6301 13.9626 15.4735 14.4866 15.3426 14.8351C15.1683 15.2969 14.9607 15.6262 14.6251 15.9723C14.2895 16.3184 13.9697 16.5324 13.5219 16.7123C13.1839 16.8482 12.6758 17.0087 11.7405 17.0526C10.7294 17.1003 10.4255 17.1099 7.8639 17.1099C5.30321 17.1099 4.99937 17.1008 3.98828 17.0526Z" fill="url(#paint0_radial_10559_18304)"/>
<path d="M3.98828 17.0526C3.05291 17.0087 2.5448 16.8482 2.20683 16.7123C1.75901 16.5324 1.43974 16.3184 1.10365 15.9723C0.767552 15.6262 0.559537 15.2969 0.386113 14.8351C0.254292 14.4866 0.0986318 13.9626 0.0560939 12.998C0.00934899 11.9553 0 11.6425 0 9.00078C0 6.35911 0.0102839 6.04673 0.0556265 5.00308C0.0981644 4.03848 0.25476 3.51545 0.385646 3.16596C0.560004 2.70415 0.768019 2.3749 1.10318 2.02782C1.43881 1.68171 1.75808 1.46671 2.20636 1.28786C2.54433 1.15192 3.05244 0.991399 3.98781 0.947532C4.99937 0.899808 5.30321 0.890167 7.8639 0.890167C10.4255 0.890167 10.7284 0.900772 11.7405 0.947532C12.6758 0.991399 13.183 1.15289 13.5219 1.28786C13.9697 1.46671 14.289 1.68171 14.6251 2.02782C14.9612 2.37394 15.1683 2.70367 15.3426 3.16548C15.4744 3.514 15.6301 4.038 15.6726 5.0026C15.7189 6.04625 15.7283 6.35862 15.7283 9.0003C15.7283 11.641 15.7189 11.9543 15.6726 12.998C15.6301 13.9626 15.4735 14.4866 15.3426 14.8351C15.1683 15.2969 14.9607 15.6262 14.6251 15.9723C14.2895 16.3184 13.9697 16.5324 13.5219 16.7123C13.1839 16.8482 12.6758 17.0087 11.7405 17.0526C10.7294 17.1003 10.4255 17.1099 7.8639 17.1099C5.30321 17.1099 4.99937 17.1008 3.98828 17.0526Z" fill="url(#paint1_radial_10559_18304)"/>
<path d="M5.93314 9.03463C5.93314 7.92537 6.80488 7.0259 7.88053 7.0259C8.95618 7.0259 9.82839 7.92537 9.82839 9.03463C9.82839 10.1439 8.95618 11.0434 7.88053 11.0434C6.80488 11.0434 5.93314 10.1439 5.93314 9.03463ZM4.88016 9.03463C4.88016 10.7435 6.22342 12.1288 7.88053 12.1288C9.53764 12.1288 10.8809 10.7435 10.8809 9.03463C10.8809 7.32574 9.53764 5.9405 7.88053 5.9405C6.22342 5.9405 4.88021 7.32564 4.88021 9.03463H4.88016ZM10.2986 5.81782C10.2985 5.96083 10.3396 6.10065 10.4166 6.21959C10.4936 6.33853 10.603 6.43126 10.7311 6.48604C10.8592 6.54082 11.0002 6.5552 11.1362 6.52735C11.2723 6.49951 11.3972 6.4307 11.4953 6.32961C11.5934 6.22853 11.6603 6.09971 11.6874 5.95946C11.7145 5.8192 11.7007 5.67381 11.6476 5.54166C11.5946 5.40951 11.5048 5.29655 11.3895 5.21704C11.2742 5.13754 11.1387 5.09508 11 5.09502H10.9997C10.8138 5.09511 10.6356 5.17128 10.5041 5.3068C10.3726 5.44233 10.2987 5.62612 10.2986 5.81782ZM5.51991 13.9395C4.95023 13.9127 4.64059 13.8149 4.43482 13.7322C4.16202 13.6227 3.96737 13.4922 3.76272 13.2815C3.55807 13.0707 3.4314 12.8702 3.32566 12.5888C3.24544 12.3767 3.15055 12.0573 3.12466 11.4698C3.09633 10.8347 3.09067 10.6439 3.09067 9.03473C3.09067 7.42557 3.0968 7.23531 3.12466 6.59962C3.1506 6.01214 3.24619 5.69335 3.32566 5.48062C3.43186 5.19929 3.55835 4.99856 3.76272 4.78752C3.96709 4.57647 4.16155 4.44583 4.43482 4.33679C4.6405 4.25407 4.95023 4.15621 5.51991 4.12951C6.13582 4.1003 6.32084 4.09446 7.88053 4.09446C9.44022 4.09446 9.62543 4.10068 10.2419 4.12961C10.8115 4.15636 11.1207 4.25494 11.3269 4.33689C11.5997 4.44593 11.7944 4.57686 11.999 4.78761C12.2037 4.99837 12.3299 5.19939 12.4361 5.48072C12.5163 5.69282 12.6112 6.01223 12.6371 6.59971C12.6654 7.2354 12.6711 7.42567 12.6711 9.03483C12.6711 10.644 12.6654 10.8342 12.6371 11.4699C12.6112 12.0574 12.5158 12.3767 12.4361 12.5889C12.3299 12.8703 12.2034 13.071 11.999 13.2816C11.7947 13.4921 11.5997 13.6228 11.3269 13.7323C11.1213 13.815 10.8115 13.9129 10.2419 13.9396C9.62594 13.9688 9.44092 13.9746 7.88053 13.9746C6.32014 13.9746 6.13564 13.9688 5.51991 13.9396V13.9395ZM5.47153 3.04541C4.8495 3.07462 4.42444 3.17634 4.05324 3.32529C3.66905 3.47912 3.34337 3.68549 3.01817 4.02032C2.69297 4.35516 2.49336 4.69106 2.3442 5.08774C2.19976 5.47078 2.10113 5.90888 2.0728 6.55035C2.04401 7.19284 2.03741 7.39824 2.03741 9.03463C2.03741 10.671 2.04401 10.8764 2.0728 11.5189C2.10113 12.1604 2.19976 12.5985 2.3442 12.9815C2.49336 13.3777 2.69301 13.7143 3.01817 14.0489C3.34333 14.3836 3.66858 14.5897 4.05324 14.744C4.42515 14.8929 4.8495 14.9946 5.47153 15.0239C6.09488 15.0531 6.29373 15.0603 7.88053 15.0603C9.46734 15.0603 9.66652 15.0536 10.2895 15.0239C10.9116 14.9946 11.3364 14.8929 11.7078 14.744C12.092 14.5897 12.4177 14.3838 12.7429 14.0489C13.0681 13.7141 13.2673 13.3777 13.4169 12.9815C13.5613 12.5985 13.6604 12.1604 13.6883 11.5189C13.7166 10.8759 13.7232 10.671 13.7232 9.03463C13.7232 7.39824 13.7166 7.19284 13.6883 6.55035C13.6599 5.90883 13.5613 5.47054 13.4169 5.08774C13.2673 4.69154 13.0676 4.35569 12.7429 4.02032C12.4182 3.68496 12.092 3.47912 11.7083 3.32529C11.3364 3.17634 10.9116 3.07414 10.29 3.04541C9.66689 3.01605 9.4678 3.00892 7.88123 3.00892C6.29466 3.00892 6.09511 3.01572 5.47177 3.04541" fill="white"/>
</g>
<circle cx="62.8382" cy="9" r="8.10989" fill="#4C9BEF"/>
<path d="M67.1632 6.53628C66.8649 6.66874 66.5442 6.75795 66.2076 6.79816C66.5513 6.59237 66.8152 6.26629 66.9392 5.87769C66.6178 6.06827 66.2617 6.20682 65.8825 6.2815C65.5794 5.95811 65.1466 5.75604 64.6681 5.75604C63.5939 5.75604 62.8045 6.75829 63.0471 7.79872C61.6647 7.72945 60.4388 7.06714 59.618 6.0605C59.1821 6.8083 59.3919 7.78656 60.1326 8.28194C59.8603 8.27315 59.6035 8.19847 59.3794 8.07378C59.3612 8.84456 59.9137 9.56566 60.7138 9.72617C60.4797 9.7897 60.2232 9.80457 59.9623 9.75456C60.1739 10.4155 60.7882 10.8964 61.5167 10.9099C60.8172 11.4583 59.936 11.7033 59.0533 11.5992C59.7897 12.0713 60.6645 12.3467 61.6039 12.3467C64.6931 12.3467 66.4384 9.73766 66.333 7.39762C66.6581 7.16277 66.9402 6.8698 67.1632 6.53628Z" fill="white"/>
<path d="M120.544 6.78958C121.591 7.53461 122.873 7.97298 124.259 7.97298V5.31934C123.997 5.31939 123.735 5.29218 123.479 5.23808V7.32688C122.093 7.32688 120.811 6.88851 119.764 6.14353V11.5588C119.764 14.2678 117.558 16.4638 114.837 16.4638C113.822 16.4638 112.878 16.1582 112.094 15.6342C112.989 16.5449 114.236 17.1098 115.617 17.1098C118.338 17.1098 120.544 14.9139 120.544 12.2048V6.78958H120.544ZM121.506 4.11238C120.971 3.53046 120.62 2.77844 120.544 1.94704V1.60573H119.805C119.991 2.66243 120.625 3.56521 121.506 4.11238ZM113.815 13.5553C113.516 13.1651 113.355 12.6878 113.355 12.197C113.355 10.958 114.364 9.95341 115.609 9.95341C115.841 9.95336 116.072 9.98872 116.293 10.0586V7.34561C116.034 7.31036 115.774 7.29539 115.513 7.30088V9.41251C115.292 9.34267 115.061 9.3072 114.829 9.30742C113.584 9.30742 112.575 10.3119 112.575 11.5511C112.575 12.4273 113.08 13.1858 113.815 13.5553Z" fill="#FF004F"/>
<path d="M119.802 6.19507C120.857 6.94852 122.148 7.39187 123.543 7.39187V5.27933C122.765 5.11351 122.075 4.70671 121.557 4.14088C120.67 3.58743 120.031 2.67439 119.843 1.60573H117.887V12.3252C117.883 13.5748 116.868 14.5867 115.617 14.5867C114.88 14.5867 114.225 14.2354 113.81 13.6912C113.07 13.3175 112.562 12.5502 112.562 11.6642C112.562 10.4111 113.578 9.39505 114.832 9.39505C115.072 9.39505 115.303 9.43244 115.521 9.50133V7.36569C112.828 7.4213 110.663 9.62051 110.663 12.3252C110.663 13.6754 111.202 14.8994 112.077 15.7937C112.867 16.3237 113.817 16.6328 114.84 16.6328C117.58 16.6328 119.802 14.4118 119.802 11.672V6.19507H119.802Z" fill="black"/>
<path d="M123.544 5.20168V4.63249C122.845 4.63356 122.16 4.43766 121.568 4.06722C122.092 4.64238 122.783 5.03897 123.544 5.20168ZM119.863 1.54112C119.845 1.43935 119.831 1.33691 119.822 1.23408V0.890106H117.135V11.5716C117.131 12.8167 116.122 13.8249 114.877 13.8249C114.512 13.8249 114.167 13.7381 113.861 13.5838C114.274 14.126 114.925 14.476 115.659 14.476C116.903 14.476 117.913 13.4678 117.917 12.2226V1.54112H119.863ZM115.563 7.28064V6.6747C115.338 6.64397 115.112 6.62856 114.885 6.62867C112.158 6.62861 109.948 8.84174 109.948 11.5716C109.948 13.2831 110.817 14.7914 112.137 15.6786C111.266 14.7875 110.73 13.5678 110.73 12.2225C110.73 9.52744 112.884 7.33605 115.563 7.28064Z" fill="#00F2EA"/>
<g clip-path="url(#clip1_10559_18304)">
<path d="M171.369 17.1099C175.848 17.1099 179.479 13.479 179.479 9.00003C179.479 4.52107 175.848 0.890144 171.369 0.890144C166.89 0.890144 163.259 4.52107 163.259 9.00003C163.259 13.479 166.89 17.1099 171.369 17.1099Z" fill="#3C5A9A"/>
<path d="M174.006 3.37944H172.209C171.143 3.37944 169.957 3.82784 169.957 5.37323C169.962 5.91171 169.957 6.42741 169.957 7.00779H168.724V8.97044H169.995V14.6206H172.332V8.93315H173.874L174.014 7.00228H172.292C172.292 7.00228 172.296 6.14335 172.292 5.89392C172.292 5.28321 172.927 5.31818 172.965 5.31818C173.268 5.31818 173.856 5.31906 174.007 5.31818V3.37944H174.006Z" fill="white"/>
</g>
<path d="M226.948 14.8137L223.62 14.7505C222.543 14.7284 221.462 14.7724 220.406 14.5441C218.799 14.203 218.685 12.5306 218.566 11.1278C218.402 9.15558 218.466 7.14757 218.775 5.19182C218.95 4.09443 219.638 3.43962 220.703 3.36836C224.295 3.10976 227.911 3.14041 231.496 3.26106C231.874 3.27212 232.256 3.33257 232.629 3.40137C234.471 3.73697 234.516 5.63219 234.636 7.2276C234.755 8.83948 234.705 10.4596 234.477 12.0605C234.294 13.386 233.945 14.4976 232.47 14.6049C230.622 14.7452 228.817 14.8582 226.964 14.8222C226.964 14.8137 226.953 14.8137 226.948 14.8137ZM224.991 11.4579C226.384 10.6271 227.75 9.81023 229.134 8.98504C227.739 8.15427 226.376 7.33736 224.991 6.51217V11.4579Z" fill="#FF0000"/>
<g clip-path="url(#clip2_10559_18304)">
<path d="M289.679 8.9773C289.679 13.3386 286.142 16.8754 281.781 16.8754C277.42 16.8754 273.883 13.3386 273.883 8.9773C273.883 4.61598 277.42 1.07916 281.781 1.07916C286.142 1.07916 289.679 4.61598 289.679 8.9773Z" fill="#CA2127"/>
<path d="M281.119 3.72399C278.893 3.96278 276.676 5.67487 276.586 8.12586C276.528 9.62168 277.154 10.7436 278.65 11.0589C278.821 10.3516 278.853 9.96861 278.853 9.96861C278.853 9.96861 278.195 9.33784 278.127 8.93685C277.578 5.71092 282.033 3.50773 284.372 5.76048C285.985 7.32388 284.921 12.1312 282.317 11.6311C279.821 11.1536 283.538 7.32839 281.547 6.57597C279.929 5.96322 279.069 8.44575 279.835 9.67575C279.384 11.7933 278.416 13.7893 278.808 16.443C280.083 15.5644 280.511 13.8794 280.862 12.1222C281.502 12.4917 281.844 12.8792 282.66 12.9377C285.669 13.1585 287.35 10.0767 286.94 7.22927C286.571 4.70619 283.93 3.42212 281.119 3.72399Z" fill="white"/>
</g>
<g clip-path="url(#clip3_10559_18304)">
<path d="M328.918 2.07964C328.918 1.44089 329.438 0.922417 330.079 0.922417H343.47C344.111 0.922417 344.631 1.44089 344.631 2.07964V15.9203C344.631 16.5592 344.111 17.0773 343.47 17.0773H330.079C329.438 17.0773 328.918 16.5593 328.918 15.9205V2.07945V2.07964Z" fill="#006699"/>
<path d="M333.693 14.4417V7.16874H331.342V14.4417H333.693H333.693ZM332.518 6.1759C333.338 6.1759 333.848 5.61742 333.848 4.91948C333.833 4.20564 333.338 3.66274 332.533 3.66274C331.729 3.66274 331.203 4.20564 331.203 4.91942C331.203 5.61736 331.713 6.17584 332.502 6.17584H332.518L332.518 6.1759ZM334.994 14.4417H337.346V10.3806C337.346 10.1635 337.361 9.94587 337.423 9.79082C337.593 9.35634 337.98 8.90659 338.629 8.90659C339.48 8.90659 339.82 9.57348 339.82 10.5513V14.4417H342.172V10.2716C342.172 8.03776 341.012 6.99823 339.465 6.99823C338.197 6.99823 337.64 7.72703 337.33 8.22341H337.346V7.16899H334.995C335.025 7.85128 334.994 14.442 334.994 14.442L334.994 14.4417Z" fill="white"/>
</g>
<g clip-path="url(#clip4_10559_18304)">
<path d="M392.188 13.8301C391.886 13.9737 391.308 14.0987 390.876 14.1101C389.576 14.145 389.324 13.1995 389.313 12.5128V7.47027H392.576V5.01839H389.325V0.892166H386.944C386.905 0.892166 386.837 0.926242 386.828 1.01309C386.689 2.27598 386.095 4.49248 383.631 5.37799V7.4703H385.275V12.7637C385.275 14.5752 386.616 17.1496 390.156 17.0895C391.349 17.0693 392.676 16.5701 392.969 16.1408L392.188 13.8301Z" fill="#303D4D"/>
</g>
<defs>
<radialGradient id="paint0_radial_10559_18304" cx="0" cy="0" r="1" gradientUnits="userSpaceOnUse" gradientTransform="translate(1.01792 16.7546) scale(19.9691 20.5931)">
<stop offset="0.09" stop-color="#FA8F21"/>
<stop offset="0.78" stop-color="#D82D7E"/>
</radialGradient>
<radialGradient id="paint1_radial_10559_18304" cx="0" cy="0" r="1" gradientUnits="userSpaceOnUse" gradientTransform="translate(10.8944 16.2338) scale(17.573 18.1221)">
<stop offset="0.64" stop-color="#8C3AAA" stop-opacity="0"/>
<stop offset="1" stop-color="#8C3AAA"/>
</radialGradient>
<clipPath id="clip0_10559_18304">
<rect width="15.7283" height="16.2198" fill="white" transform="translate(0 0.890167)"/>
</clipPath>
<clipPath id="clip1_10559_18304">
<rect width="16.2198" height="16.2198" fill="white" transform="translate(163.259 0.890106)"/>
</clipPath>
<clipPath id="clip2_10559_18304">
<rect width="16.2198" height="16.2198" fill="white" transform="translate(273.698 0.890106)"/>
</clipPath>
<clipPath id="clip3_10559_18304">
<rect width="15.7129" height="16.2198" fill="white" transform="translate(328.918 0.890106)"/>
</clipPath>
<clipPath id="clip4_10559_18304">
<rect width="9.33866" height="16.2198" fill="white" transform="translate(383.631 0.890106)"/>
</clipPath>
</defs>
</svg>
